<mxfile host="app.diagrams.net" modified="2024-02-05T16:50:29.148Z" agent="Mozilla/5.0 (Windows NT 10.0; Win64; x64) AppleWebKit/537.36 (KHTML, like Gecko) Chrome/121.0.0.0 Safari/537.36" etag="V4SD_CazbV964ofjNwsg" version="22.1.21" type="device">
  <diagram name="Pagina-1" id="0xwyj3qpeVwpqq5gA3CG">
    <mxGraphModel dx="683" dy="368" grid="1" gridSize="10" guides="1" tooltips="1" connect="1" arrows="1" fold="1" page="1" pageScale="1" pageWidth="827" pageHeight="1169" math="0" shadow="0">
      <root>
        <mxCell id="0" />
        <mxCell id="1" parent="0" />
        <mxCell id="-GsD7Uve8e4qSdOy5VTV-1" value="1" style="ellipse;whiteSpace=wrap;html=1;" vertex="1" parent="1">
          <mxGeometry x="360" y="440" width="40" height="40" as="geometry" />
        </mxCell>
        <mxCell id="-GsD7Uve8e4qSdOy5VTV-2" value="2" style="ellipse;whiteSpace=wrap;html=1;" vertex="1" parent="1">
          <mxGeometry x="360" y="520" width="40" height="40" as="geometry" />
        </mxCell>
        <mxCell id="-GsD7Uve8e4qSdOy5VTV-3" value="+" style="whiteSpace=wrap;html=1;aspect=fixed;" vertex="1" parent="1">
          <mxGeometry x="440" y="480" width="40" height="40" as="geometry" />
        </mxCell>
        <mxCell id="-GsD7Uve8e4qSdOy5VTV-4" value="" style="endArrow=classic;html=1;rounded=0;exitX=1;exitY=0.5;exitDx=0;exitDy=0;entryX=0;entryY=0.25;entryDx=0;entryDy=0;edgeStyle=orthogonalEdgeStyle;" edge="1" parent="1" source="-GsD7Uve8e4qSdOy5VTV-1" target="-GsD7Uve8e4qSdOy5VTV-3">
          <mxGeometry width="50" height="50" relative="1" as="geometry">
            <mxPoint x="450" y="520" as="sourcePoint" />
            <mxPoint x="500" y="470" as="targetPoint" />
          </mxGeometry>
        </mxCell>
        <mxCell id="-GsD7Uve8e4qSdOy5VTV-5" value="" style="endArrow=classic;html=1;rounded=0;exitX=1;exitY=0.5;exitDx=0;exitDy=0;entryX=0;entryY=0.75;entryDx=0;entryDy=0;edgeStyle=orthogonalEdgeStyle;" edge="1" parent="1" source="-GsD7Uve8e4qSdOy5VTV-2" target="-GsD7Uve8e4qSdOy5VTV-3">
          <mxGeometry width="50" height="50" relative="1" as="geometry">
            <mxPoint x="414" y="510" as="sourcePoint" />
            <mxPoint x="454" y="540" as="targetPoint" />
          </mxGeometry>
        </mxCell>
        <mxCell id="-GsD7Uve8e4qSdOy5VTV-6" value="" style="endArrow=classic;html=1;rounded=0;exitX=1;exitY=0.5;exitDx=0;exitDy=0;entryX=0;entryY=0.5;entryDx=0;entryDy=0;edgeStyle=orthogonalEdgeStyle;" edge="1" parent="1" source="-GsD7Uve8e4qSdOy5VTV-3" target="-GsD7Uve8e4qSdOy5VTV-7">
          <mxGeometry width="50" height="50" relative="1" as="geometry">
            <mxPoint x="490" y="500" as="sourcePoint" />
            <mxPoint x="530" y="530" as="targetPoint" />
          </mxGeometry>
        </mxCell>
        <mxCell id="-GsD7Uve8e4qSdOy5VTV-7" value="3" style="ellipse;whiteSpace=wrap;html=1;" vertex="1" parent="1">
          <mxGeometry x="520" y="480" width="40" height="40" as="geometry" />
        </mxCell>
        <mxCell id="-GsD7Uve8e4qSdOy5VTV-8" value="var1" style="text;html=1;align=center;verticalAlign=middle;resizable=0;points=[];autosize=1;strokeColor=none;fillColor=none;" vertex="1" parent="1">
          <mxGeometry x="355" y="475" width="50" height="30" as="geometry" />
        </mxCell>
        <mxCell id="-GsD7Uve8e4qSdOy5VTV-9" value="var2" style="text;html=1;align=center;verticalAlign=middle;resizable=0;points=[];autosize=1;strokeColor=none;fillColor=none;" vertex="1" parent="1">
          <mxGeometry x="355" y="555" width="50" height="30" as="geometry" />
        </mxCell>
        <mxCell id="-GsD7Uve8e4qSdOy5VTV-10" value="var3" style="text;html=1;align=center;verticalAlign=middle;resizable=0;points=[];autosize=1;strokeColor=none;fillColor=none;" vertex="1" parent="1">
          <mxGeometry x="515" y="515" width="50" height="30" as="geometry" />
        </mxCell>
        <mxCell id="-GsD7Uve8e4qSdOy5VTV-11" value="T = 0" style="text;html=1;align=center;verticalAlign=middle;resizable=0;points=[];autosize=1;strokeColor=none;fillColor=none;" vertex="1" parent="1">
          <mxGeometry x="355" y="408" width="50" height="30" as="geometry" />
        </mxCell>
        <mxCell id="-GsD7Uve8e4qSdOy5VTV-12" value="&lt;u&gt;3&lt;/u&gt;" style="ellipse;whiteSpace=wrap;html=1;fillColor=#fff2cc;strokeColor=#d6b656;" vertex="1" parent="1">
          <mxGeometry x="640" y="440" width="40" height="40" as="geometry" />
        </mxCell>
        <mxCell id="-GsD7Uve8e4qSdOy5VTV-13" value="2" style="ellipse;whiteSpace=wrap;html=1;" vertex="1" parent="1">
          <mxGeometry x="640" y="520" width="40" height="40" as="geometry" />
        </mxCell>
        <mxCell id="-GsD7Uve8e4qSdOy5VTV-14" value="+" style="whiteSpace=wrap;html=1;aspect=fixed;" vertex="1" parent="1">
          <mxGeometry x="720" y="480" width="40" height="40" as="geometry" />
        </mxCell>
        <mxCell id="-GsD7Uve8e4qSdOy5VTV-15" value="" style="endArrow=classic;html=1;rounded=0;exitX=1;exitY=0.5;exitDx=0;exitDy=0;entryX=0;entryY=0.25;entryDx=0;entryDy=0;edgeStyle=orthogonalEdgeStyle;" edge="1" parent="1" source="-GsD7Uve8e4qSdOy5VTV-12" target="-GsD7Uve8e4qSdOy5VTV-14">
          <mxGeometry width="50" height="50" relative="1" as="geometry">
            <mxPoint x="730" y="520" as="sourcePoint" />
            <mxPoint x="780" y="470" as="targetPoint" />
          </mxGeometry>
        </mxCell>
        <mxCell id="-GsD7Uve8e4qSdOy5VTV-16" value="" style="endArrow=classic;html=1;rounded=0;exitX=1;exitY=0.5;exitDx=0;exitDy=0;entryX=0;entryY=0.75;entryDx=0;entryDy=0;edgeStyle=orthogonalEdgeStyle;" edge="1" parent="1" source="-GsD7Uve8e4qSdOy5VTV-13" target="-GsD7Uve8e4qSdOy5VTV-14">
          <mxGeometry width="50" height="50" relative="1" as="geometry">
            <mxPoint x="694" y="510" as="sourcePoint" />
            <mxPoint x="734" y="540" as="targetPoint" />
          </mxGeometry>
        </mxCell>
        <mxCell id="-GsD7Uve8e4qSdOy5VTV-17" value="" style="endArrow=classic;html=1;rounded=0;exitX=1;exitY=0.5;exitDx=0;exitDy=0;entryX=0;entryY=0.5;entryDx=0;entryDy=0;edgeStyle=orthogonalEdgeStyle;" edge="1" parent="1" source="-GsD7Uve8e4qSdOy5VTV-14" target="-GsD7Uve8e4qSdOy5VTV-18">
          <mxGeometry width="50" height="50" relative="1" as="geometry">
            <mxPoint x="770" y="500" as="sourcePoint" />
            <mxPoint x="810" y="530" as="targetPoint" />
          </mxGeometry>
        </mxCell>
        <mxCell id="-GsD7Uve8e4qSdOy5VTV-18" value="5" style="ellipse;whiteSpace=wrap;html=1;fillColor=#fff2cc;strokeColor=#d6b656;" vertex="1" parent="1">
          <mxGeometry x="800" y="480" width="40" height="40" as="geometry" />
        </mxCell>
        <mxCell id="-GsD7Uve8e4qSdOy5VTV-19" value="var1" style="text;html=1;align=center;verticalAlign=middle;resizable=0;points=[];autosize=1;strokeColor=none;fillColor=none;" vertex="1" parent="1">
          <mxGeometry x="635" y="475" width="50" height="30" as="geometry" />
        </mxCell>
        <mxCell id="-GsD7Uve8e4qSdOy5VTV-20" value="var2" style="text;html=1;align=center;verticalAlign=middle;resizable=0;points=[];autosize=1;strokeColor=none;fillColor=none;" vertex="1" parent="1">
          <mxGeometry x="635" y="555" width="50" height="30" as="geometry" />
        </mxCell>
        <mxCell id="-GsD7Uve8e4qSdOy5VTV-21" value="var3" style="text;html=1;align=center;verticalAlign=middle;resizable=0;points=[];autosize=1;strokeColor=none;fillColor=none;" vertex="1" parent="1">
          <mxGeometry x="795" y="515" width="50" height="30" as="geometry" />
        </mxCell>
        <mxCell id="-GsD7Uve8e4qSdOy5VTV-22" value="T = 1" style="text;html=1;align=center;verticalAlign=middle;resizable=0;points=[];autosize=1;strokeColor=none;fillColor=none;" vertex="1" parent="1">
          <mxGeometry x="635" y="408" width="50" height="30" as="geometry" />
        </mxCell>
        <mxCell id="-GsD7Uve8e4qSdOy5VTV-23" value="3" style="ellipse;whiteSpace=wrap;html=1;" vertex="1" parent="1">
          <mxGeometry x="920" y="440" width="40" height="40" as="geometry" />
        </mxCell>
        <mxCell id="-GsD7Uve8e4qSdOy5VTV-24" value="&lt;u&gt;1&lt;/u&gt;" style="ellipse;whiteSpace=wrap;html=1;fillColor=#fff2cc;strokeColor=#d6b656;" vertex="1" parent="1">
          <mxGeometry x="920" y="520" width="40" height="40" as="geometry" />
        </mxCell>
        <mxCell id="-GsD7Uve8e4qSdOy5VTV-25" value="+" style="whiteSpace=wrap;html=1;aspect=fixed;" vertex="1" parent="1">
          <mxGeometry x="1000" y="480" width="40" height="40" as="geometry" />
        </mxCell>
        <mxCell id="-GsD7Uve8e4qSdOy5VTV-26" value="" style="endArrow=classic;html=1;rounded=0;exitX=1;exitY=0.5;exitDx=0;exitDy=0;entryX=0;entryY=0.25;entryDx=0;entryDy=0;edgeStyle=orthogonalEdgeStyle;" edge="1" parent="1" source="-GsD7Uve8e4qSdOy5VTV-23" target="-GsD7Uve8e4qSdOy5VTV-25">
          <mxGeometry width="50" height="50" relative="1" as="geometry">
            <mxPoint x="1010" y="520" as="sourcePoint" />
            <mxPoint x="1060" y="470" as="targetPoint" />
          </mxGeometry>
        </mxCell>
        <mxCell id="-GsD7Uve8e4qSdOy5VTV-27" value="" style="endArrow=classic;html=1;rounded=0;exitX=1;exitY=0.5;exitDx=0;exitDy=0;entryX=0;entryY=0.75;entryDx=0;entryDy=0;edgeStyle=orthogonalEdgeStyle;" edge="1" parent="1" source="-GsD7Uve8e4qSdOy5VTV-24" target="-GsD7Uve8e4qSdOy5VTV-25">
          <mxGeometry width="50" height="50" relative="1" as="geometry">
            <mxPoint x="974" y="510" as="sourcePoint" />
            <mxPoint x="1014" y="540" as="targetPoint" />
          </mxGeometry>
        </mxCell>
        <mxCell id="-GsD7Uve8e4qSdOy5VTV-28" value="" style="endArrow=classic;html=1;rounded=0;exitX=1;exitY=0.5;exitDx=0;exitDy=0;entryX=0;entryY=0.5;entryDx=0;entryDy=0;edgeStyle=orthogonalEdgeStyle;" edge="1" parent="1" source="-GsD7Uve8e4qSdOy5VTV-25" target="-GsD7Uve8e4qSdOy5VTV-29">
          <mxGeometry width="50" height="50" relative="1" as="geometry">
            <mxPoint x="1050" y="500" as="sourcePoint" />
            <mxPoint x="1090" y="530" as="targetPoint" />
          </mxGeometry>
        </mxCell>
        <mxCell id="-GsD7Uve8e4qSdOy5VTV-29" value="4" style="ellipse;whiteSpace=wrap;html=1;fillColor=#fff2cc;strokeColor=#d6b656;" vertex="1" parent="1">
          <mxGeometry x="1080" y="480" width="40" height="40" as="geometry" />
        </mxCell>
        <mxCell id="-GsD7Uve8e4qSdOy5VTV-30" value="var1" style="text;html=1;align=center;verticalAlign=middle;resizable=0;points=[];autosize=1;strokeColor=none;fillColor=none;" vertex="1" parent="1">
          <mxGeometry x="915" y="475" width="50" height="30" as="geometry" />
        </mxCell>
        <mxCell id="-GsD7Uve8e4qSdOy5VTV-31" value="var2" style="text;html=1;align=center;verticalAlign=middle;resizable=0;points=[];autosize=1;strokeColor=none;fillColor=none;" vertex="1" parent="1">
          <mxGeometry x="915" y="555" width="50" height="30" as="geometry" />
        </mxCell>
        <mxCell id="-GsD7Uve8e4qSdOy5VTV-32" value="var3" style="text;html=1;align=center;verticalAlign=middle;resizable=0;points=[];autosize=1;strokeColor=none;fillColor=none;" vertex="1" parent="1">
          <mxGeometry x="1075" y="515" width="50" height="30" as="geometry" />
        </mxCell>
        <mxCell id="-GsD7Uve8e4qSdOy5VTV-33" value="T = 2" style="text;html=1;align=center;verticalAlign=middle;resizable=0;points=[];autosize=1;strokeColor=none;fillColor=none;" vertex="1" parent="1">
          <mxGeometry x="915" y="408" width="50" height="30" as="geometry" />
        </mxCell>
        <mxCell id="-GsD7Uve8e4qSdOy5VTV-34" value="" style="endArrow=none;html=1;rounded=0;" edge="1" parent="1">
          <mxGeometry width="50" height="50" relative="1" as="geometry">
            <mxPoint x="600" y="600" as="sourcePoint" />
            <mxPoint x="600" y="400" as="targetPoint" />
          </mxGeometry>
        </mxCell>
        <mxCell id="-GsD7Uve8e4qSdOy5VTV-35" value="" style="endArrow=none;html=1;rounded=0;" edge="1" parent="1">
          <mxGeometry width="50" height="50" relative="1" as="geometry">
            <mxPoint x="880" y="600" as="sourcePoint" />
            <mxPoint x="880" y="400" as="targetPoint" />
          </mxGeometry>
        </mxCell>
      </root>
    </mxGraphModel>
  </diagram>
</mxfile>
